<svg width="1451" height="150" viewBox="0 0 1451 150" fill="none" xmlns="http://www.w3.org/2000/svg">
<path fill-rule="evenodd" clip-rule="evenodd" d="M0 50L48.3667 37.5C96.7333 25 193.467 0 290.2 12.5C386.933 25 483.667 75 580.4 75C677.133 75 773.867 25 870.6 16.6667C967.333 8.33333 1064.07 41.6667 1160.8 45.8333C1257.53 50 1354.27 25 1402.63 12.5L1451 0V150H1402.63C1354.27 150 1257.53 150 1160.8 150C1064.07 150 967.333 150 870.6 150C773.867 150 677.133 150 580.4 150C483.667 150 386.933 150 290.2 150C193.467 150 96.7333 150 48.3667 150H0V50Z" fill="#66C190"/>
</svg>
