<svg xmlns="http://www.w3.org/2000/svg" version="1.1" xmlns:xlink="http://www.w3.org/1999/xlink" xmlns:svgjs="http://svgjs.dev/svgjs" width="1920" height="768" preserveAspectRatio="none" viewBox="0 0 1920 768"><g mask="url(&quot;#SvgjsMask2805&quot;)" fill="none"><rect width="1920" height="768" x="0" y="0" fill="url(&quot;#SvgjsLinearGradient2806&quot;)"></rect><path d="M1920 0L1003.6 0L1920 291.44z" fill="rgba(255, 255, 255, .1)"></path><path d="M1003.6 0L1920 291.44L1920 442.71000000000004L446.6700000000001 0z" fill="rgba(255, 255, 255, .075)"></path><path d="M446.6700000000001 0L1920 442.71000000000004L1920 455.49L206.18000000000006 0z" fill="rgba(255, 255, 255, .05)"></path><path d="M206.18000000000006 0L1920 455.49L1920 568.4300000000001L179.31000000000006 0z" fill="rgba(255, 255, 255, .025)"></path><path d="M0 768L956.95 768L0 558.74z" fill="rgba(0, 0, 0, .1)"></path><path d="M0 558.74L956.95 768L1261.0500000000002 768L0 532.12z" fill="rgba(0, 0, 0, .075)"></path><path d="M0 532.12L1261.0500000000002 768L1550.9700000000003 768L0 389.94z" fill="rgba(0, 0, 0, .05)"></path><path d="M0 389.94L1550.9700000000003 768L1615.3900000000003 768L0 272.9z" fill="rgba(0, 0, 0, .025)"></path></g><defs><mask id="SvgjsMask2805"><rect width="1920" height="768" fill="#ffffff"></rect></mask><linearGradient x1="15%" y1="-37.5%" x2="85%" y2="137.5%" gradientUnits="userSpaceOnUse" id="SvgjsLinearGradient2806"><stop stop-color="rgba(0, 0, 0, 1)" offset="0"></stop><stop stop-color="rgba(102, 193, 144, 1)" offset="0.94"></stop></linearGradient></defs></svg>